<?xml version="1.0" encoding="utf-8"?>
<!-- Generator: Adobe Illustrator 28.1.0, SVG Export Plug-In . SVG Version: 6.00 Build 0)  -->
<svg version="1.0" id="Camada_1" xmlns="http://www.w3.org/2000/svg" xmlns:xlink="http://www.w3.org/1999/xlink" x="0px" y="0px"
	 viewBox="0 0 2104.14 600.63" style="enable-background:new 0 0 2104.14 600.63;" xml:space="preserve">
<style type="text/css">
	.st0{fill:#092B48;}
</style>
<g>
	<g>
		<g>
			<g>
				<g>
					<g>
						<path class="st0" d="M957.15,462.84c-22.12,6.55-55,11.06-92.24,11.06c-113.49,0-141.86-52.67-141.86-172.99
							c0-120.47,28.52-172.99,141.86-172.99c37.68,0,70.13,4.95,92.24,11.35l-6.98,61.84c-23.42-3.78-47.87-6.26-73.18-6.26
							c-71.15,0-73.47,44.81-73.47,106.06c0,61.54,1.6,106.07,73.47,106.07c24.88,0,50.34-2.33,73.04-6.4L957.15,462.84z"/>
						<path class="st0" d="M1192.22,195.57h-91.33c-33.46,0-39.28,7.28-39.28,38.85v31.86h110.5L1160.83,330h-99.22v36.95
							c0,31.72,5.82,39.14,39.28,39.14h108.71l-17.38,65.18c0,0-68.2,0-89.88,0c-62.56,0-119.74-3.64-119.74-85.84v-169.5
							c0-82.2,57.18-85.4,119.74-85.4h107.26L1192.22,195.57z"/>
						<path class="st0" d="M1414.93,470.4l98.64-287.93c13.39-38.85,32.15-54.56,60.82-54.56c27.64,0,47.72,17.46,60.23,54.56
							l97.19,287.93h-84.1l-22.99-77.4h-105.78l-22.26,77.4H1414.93z M1606.55,331.6l-35.36-119.6l-34.48,119.6H1606.55z"/>
						<path class="st0" d="M1929.26,325.2l57.91-146.22c13.24-33.46,33.46-51.07,55.73-51.07c34.63,0,46.41,14.69,48.45,59.22
							l12.8,283.28h-76.38l-5.53-225.08l-0.29-0.15l-49.47,142c-9.02,25.9-22.26,38.99-42.78,38.99
							c-20.66,0-33.46-13.24-42.92-38.99l-51.94-141.42h-0.29l-5.09,224.64h-73.62l12.95-283.57c1.89-40.74,15.13-58.93,48.45-58.93
							c22.26,0,40.88,14.99,54.56,50.05L1929.26,325.2z"/>
					</g>
				</g>
				<g>
					<g>
						<path class="st0" d="M1333.36,131.13h78.84v212.64c0,23.58-1.99,43.48-5.97,59.73c-3.99,16.25-10.51,29.47-19.59,39.66
							c-9.08,10.2-20.87,17.61-35.36,22.22c-14.5,4.62-32.25,6.93-53.28,6.93c-10.2,0-19.04,0-26.52,0
							c-7.49,0-14.33-0.08-20.55-0.24c-6.21-0.17-12.03-0.32-17.44-0.48c-5.42-0.16-16.28-0.24-22.33-0.24l17.55-65.42
							c7.96,0.32,15.97,0.17,23.93,0.17c7.96,0,16.68,0,26.56,0c10.51,0,19.35-1.4,26.21-2.84c6.85-1.43,12.34-4.46,16.49-9.08
							c4.14-4.61,7.09-11.39,8.84-20.31c1.75-8.91,2.63-20.86,2.63-35.84V131.13z"/>
					</g>
				</g>
			</g>
		</g>
		<g>
			<g>
				<path class="st0" d="M585.27,166.95L439.81,21.49C427.47,9.15,411.2,1.11,393.77,0.12c-19.98-1.14-38.96,6.11-52.98,20.13
					L129.05,232c-37.67,37.67-37.67,98.96,0,136.63l121.24,121.24c0.2,0.2,0.52,0.2,0.71,0l52.41-52.41c0.2-0.2,0.2-0.52,0-0.71
					L182.16,315.51c-8.38-8.38-8.38-22.01,0-30.39L389.32,77.96c0.2-0.2,0.52-0.2,0.71,0l142.11,142.11
					c21.43,21.43,33.24,49.93,33.24,80.24c0,30.31-11.8,58.81-33.24,80.25L389.84,522.87l0,0l-52.92,52.92c-0.2,0.2-0.2,0.52,0,0.71
					l2.63,2.63c12.34,12.34,28.63,20.38,46.06,21.37c19.98,1.14,38.95-6.12,52.96-20.13l144.38-144.38
					c36.55-36.55,58.09-86.03,57.55-137.72C639.98,248.66,620.41,202.09,585.27,166.95z"/>
			</g>
			<path class="st0" d="M320.15,180.03L208.2,291.99c-4.37,4.37-4.37,11.46,0,15.83l112.16,112.16l111.95-111.96
				c4.37-4.37,4.37-11.46,0-15.83L320.15,180.03z M360.94,292.16c-1.47,5.08-2.45,9.66-0.96,14.71c0,0,0.19,0.65-0.09,0.89
				s-0.89,0.48-0.89,0.48c-4.97,2.29-10.44,1.38-14.94,4.13c-1.46,2.28-0.97,4.14-1.96,5.98c0,0-0.65,1.41-1.55,3.21l1.02,0.23
				c5.4,2.09,12.07,2.64,15.39,7.97c-2.86,2.25-5.75,4.54-7.88,7.49c-1.22,1.68-2.16,3.55-3.24,5.32
				c-5.19,8.53-14.07,15.04-23.98,16.71c-2.19,0.37-4.9,0.81-7.05,0.19c-2.27-0.65-4.56-2.2-6.63-3.33
				c-4.48-2.44-8.85-5.09-13.39-7.43c-3.93-2.02-8.03-3.78-12.31-4.89c-4.59-1.19-8.87-1.11-13.54-0.98
				c6.48-6.11,14.98-10.14,22.1-15.46c7.34-5.48,14.12-12.43,16.75-21.21c0.61-2.02,0.6-3.91-1.29-5.21
				c-0.92-0.63-1.99-0.97-3.02-1.38c-3.85-1.53-7.22-4.04-10.4-6.7c-3.03-2.54-5.93-5.23-8.74-8.02c-2.61-2.6-5.42-5.22-7.72-8.1
				c-0.19-0.24-2.06-3.29-1.11-3.29c1.06,0,3.82,0.84,4.35-0.15c-1.44-1.36-4.3-4.46-5.38-5.62c-1.26-1.36-2.14-3.08-2.55-4.88
				c-0.23-1.04-0.31-2.11-0.23-3.17c0.02-0.21,0.43-2.68,0.48-2.67c0.62,0.19,1.24,0.37,1.86,0.54c2.28,0.61,4.62,1.02,6.99,0.94
				c0.65-0.02,1.31-0.08,1.96-0.18c2.29-0.34,4.48-1.17,6.58-2.14c0.72-0.33,1.43-0.68,2.14-1.05c4.69-2.44,8.99-5.54,13.75-7.85
				c7.22-3.52,15.09-5.7,23.09-6.41c1.92-0.17,3.85-0.25,5.77-0.25c4.4,0,8.84,0.47,12.97,1.98c3.58,1.32,12.71,6.14,10.12,11.19
				c-0.65,0.88-1.67,1.78-3.07,2.46s-5.08,2.09-7.74,2.18c1.46,1.95,2.27,3.95,2.47,3.95c0.98,1.36,1.48,2.76,2.48,4.12
				c4.95,8.75,4.95,17.9,12.4,23.42C363.94,291.24,361.96,291.24,360.94,292.16z"/>
			<g>
				<path class="st0" d="M511.46,232L389.68,110.21l-53.12,53.12l121.79,121.79c8.38,8.38,8.38,22.01,0,30.39L262.57,511.28
					c-6.49,6.49-17.01,6.49-23.5,0L108.36,380.56c-21.88-21.88-33.72-51.12-33.22-82.14c0.49-30.08,13.48-58.61,34.76-79.89
					L249.52,78.91l0,0l54.43-54.43l-3.12-3.12C288.56,9.1,272.39,1.16,255.08,0.13C235.04-1.06,216,6.19,201.94,20.25L57.41,164.78
					C20.95,201.24-0.48,250.6,0.01,302.17c0.47,49.69,20.05,96.33,55.23,131.52l145.58,145.58c12.26,12.26,28.42,20.2,45.73,21.24
					c20.05,1.2,39.1-6.06,53.16-20.12l211.75-211.75C549.13,330.96,549.13,269.67,511.46,232z"/>
			</g>
		</g>
	</g>
</g>
</svg>
